#!OML:ASF E:\Mandelcareful walks\Project 1\Capture day 1\Session 1\Subject1.ASF
:FULLY-SPECIFIED
:DEGREES
1195
root 8.99641 15.2616 6.46799 -880.233 59.1999 -900.516
lowerback 27.1752 1.00795 -2.48671
upperback 6.41948 1.1482 -3.18791
thorax -7.83913 0.913474 -2.53358
lowerneck -23.3868 15.7655 10.9723
upperneck 9.12492 23.5408 -25.4866
head 11.6051 9.36676 -6.15763
rclavicle -1.27222e-014 1.47101e-014
rhumerus -25.2002 10.0043 -91.8355
rradius 32.9978
rwrist -55.9183
rhand 7.11546 -37.2495
rfingers 7.12502
rthumb 32.3856 -64.3773
lclavicle -1.27222e-014 1.47101e-014
lhumerus -25.1777 -83.0537 119.836
lradius 53.8567
lwrist 0.359162
lhand -18.9138 -10.4705
lfingers 7.12502
lthumb 7.38836 19.3805
rfemur -48.7283 -17.3226 13.5014
rtibia 61.0628
rfoot -22.818 -14.3231
rtoes -14.3752
lfemur -57.4331 15.1162 -26.5356
ltibia 65.9975
lfoot -25.4334 9.59871
ltoes -8.56709
1196
root 9.07046 15.2541 6.57777 -880.141 57.3105 -900.87
lowerback 27.2525 1.04302 -2.39299
upperback 6.4805 1.24371 -3.21005
thorax -7.80434 0.968437 -2.64596
lowerneck -23.8889 15.5876 10.658
upperneck 9.23917 23.3687 -25.362
head 11.641 9.25089 -6.09288
rclavicle -4.92986e-014 2.82274e-014
rhumerus -25.1326 9.99827 -91.6503
rradius 32.951
rwrist -56.0697
rhand 7.02223 -37.1207
rfingers 7.12502
rthumb 32.2969 -64.2666
lclavicle -4.92986e-014 2.82274e-014
lhumerus -22.7407 -83.8454 117.352
lradius 54.2453
lwrist 1.34904
lhand -17.9808 -10.0524
lfingers 7.12502
lthumb 8.2889 19.7649
rfemur -48.9624 -17.872 14.0038
rtibia 61.7647
rfoot -23.5452 -15.0638
rtoes -15.367
lfemur -58.7784 16.467 -28.2966
ltibia 66.1837
lfoot -25.2271 11.1067
ltoes -9.89786
1197
root 9.14517 15.2433 6.68111 -879.824 55.4914 -900.955
lowerback 27.4201 1.09963 -2.11281
upperback 6.42682 1.38648 -3.38279
thorax -7.93422 1.03801 -3.05779
lowerneck -23.9522 15.3907 10.8624
upperneck 9.31594 23.0171 -25.2827
head 11.6234 9.09945 -6.18995
rclavicle -7.35503e-014 -2.62396e-014
rhumerus -25.2405 8.83684 -91.7426
rradius 32.8666
rwrist -55.5276
rhand 6.77525 -36.9822
rfingers 7.12502
rthumb 32.0617 -64.1758
lclavicle -7.35503e-014 -2.62396e-014
lhumerus -24.61 -84.384 119.169
lradius 54.1931
lwrist 1.36539
lhand -17.9873 -10.4597
lfingers 7.12502
lthumb 8.28256 19.358
rfemur -49.2519 -18.3717 14.687
rtibia 62.4403
rfoot -24.3283 -15.9346
rtoes -15.7931
lfemur -60.1762 17.8152 -29.9911
ltibia 66.3919
lfoot -25.1859 12.0115
ltoes -6.00012
1198
root 9.21855 15.2378 6.77934 -879.597 53.6472 -901.104
lowerback 27.5457 0.997813 -2.16241
upperback 6.51603 1.27747 -3.32371
thorax -7.90175 1.00011 -2.93014
lowerneck -24.4254 15.3644 10.3579
upperneck 9.35968 23.0923 -25.1104
head 11.6432 9.09607 -6.01221
rclavicle 5.48646e-014 1.55052e-014
rhumerus -25.1087 8.72486 -91.6779
rradius 32.7462
rwrist -55.2154
rhand 7.40605 -37.1748
rfingers 7.12502
rthumb 32.6621 -64.2457
lclavicle 5.48646e-014 1.55052e-014
lhumerus -21.6584 -84.28 116.37
lradius 53.9783
lwrist 0.567086
lhand -18.7905 -10.7658
lfingers 7.12502
lthumb 7.50735 19.081
rfemur -49.5442 -18.9665 15.3728
rtibia 63.1005
rfoot -25.0174 -16.9655
rtoes -16.0478
lfemur -61.4875 18.7935 -31.6504
ltibia 66.6299
lfoot -25.2876 12.9822
ltoes -2.46741
1199
root 9.29018 15.2312 6.86581 -879.413 51.8825 -901.241
lowerback 27.7262 1.21952 -1.80906
upperback 6.43524 1.63953 -3.68859
thorax -8.04981 1.17304 -3.6774
lowerneck -24.2434 15.0641 11.1852
upperneck 9.6842 22.4433 -25.0093
head 11.688 8.82811 -6.29409
rclavicle 4.6118e-014 7.67309e-014
rhumerus -25.4193 7.60425 -91.9012
rradius 32.6606
rwrist -55.3951
rhand 8.6435 -37.1262
rfingers 7.12502
rthumb 33.8386 -63.9457
lclavicle 4.6118e-014 7.67309e-014
lhumerus -30.4436 -85.4205 124.941
lradius 54.1091
lwrist 0.491811
lhand -18.867 -10.6566
lfingers 7.12502
lthumb 7.43355 19.1928
rfemur -49.7812 -19.5694 16.0382
rtibia 63.6687
rfoot -25.5189 -18.0211
rtoes -16.154
lfemur -62.6434 19.5535 -33.2063
ltibia 66.8102
lfoot -25.3866 13.8745
ltoes -0.304818
1200
root 9.36023 15.2227 6.93688 -879.379 50.1284 -901.499
lowerback 27.7684 1.03135 -2.29618
upperback 6.67485 1.34183 -3.44248
thorax -7.82847 1.06153 -3.01422
lowerneck -24.6644 15.1833 10.4857
upperneck 9.50806 22.8035 -25.0334
head 11.6873 8.9523 -6.07574
rclavicle -2.98177e-014 1.19271e-015
rhumerus -25.0461 9.86671 -91.6963
rradius 32.6181
rwrist -56.787
rhand 9.43243 -36.6834
rfingers 7.12502
rthumb 34.5878 -63.3347
lclavicle -2.98177e-014 1.19271e-015
lhumerus -20.8122 -84.576 115.903
lradius 53.9423
lwrist 0.637691
lhand -18.4799 -10.855
lfingers 7.12502
lthumb 7.80719 18.9808
rfemur -49.8771 -20.2798 16.5426
rtibia 64.1713
rfoot -26.0884 -18.8912
rtoes -15.956
lfemur -63.5417 19.9823 -34.5747
ltibia 66.9151
lfoot -25.6951 14.7358
ltoes 1.11007
